<?xml version="1.0" encoding="UTF-8"?>
<svg width="32px" height="32px" viewBox="0 0 32 32" version="1.1" xmlns="http://www.w3.org/2000/svg" xmlns:xlink="http://www.w3.org/1999/xlink">
    <!-- Generator: Sketch 48.2 (47327) - http://www.bohemiancoding.com/sketch -->
    <title>Artboard Copy 3</title>
    <desc>Created with Sketch.</desc>
    <defs></defs>
    <g id="peralink-•-header" stroke="none" stroke-width="1" fill="none" fill-rule="evenodd">
        <g id="Artboard-Copy-3" fill="#F2F2F2" fill-rule="nonzero">
            <path d="M25.0415913,6.95840868 L25.0415913,6.95840868 C24.5122768,6.42909418 23.6540885,6.42909418 23.124774,6.95840868 L16,14.0831826 L8.87522604,6.95840868 C8.34591154,6.42909418 7.48772318,6.42909418 6.95840868,6.95840868 L6.95840868,6.95840868 C6.42909418,7.48772318 6.42909418,8.34591154 6.95840868,8.87522604 L14.0831826,16 L6.95840868,23.124774 C6.42909418,23.6540885 6.42909418,24.5122768 6.95840868,25.0415913 L6.95840868,25.0415913 C7.48772318,25.5709058 8.34591154,25.5709058 8.87522604,25.0415913 L16,17.9168174 L23.124774,25.0415913 C23.6540885,25.5709058 24.5122768,25.5709058 25.0415913,25.0415913 L25.0415913,25.0415913 C25.5709058,24.5122768 25.5709058,23.6540885 25.0415913,23.124774 L17.9168174,16 L25.0415913,8.87522604 C25.5709058,8.34591154 25.5709058,7.48772318 25.0415913,6.95840868 Z" id="Shape"></path>
        </g>
    </g>
</svg>